# xmcd
#
# Track frame offsets: 
#        150
#        20540
#        36970
#        52163
#        71498
#        88627
#        106100
#        119866
#        139861
#        159204
#        180328
#        193149
#        213492
#
# Disc length: 3261 seconds
#
# Revision: 0
# Processed by: cddbd v1.5.2PL0 Copyright (c) Steve Scherf et al.
# Submitted via: ExactAudioCopyFreeDBPlugin 1.0
#
DISCID=b90cbb0d
DTITLE=Alfons Hasenkopf - Mensch Drin
DYEAR=2010
DGENRE=Chanson
TTITLE0=Hey Du
TTITLE1=Fliag in de Sonn
TTITLE2=Du bist Du
TTITLE3=Wuidkatzn
TTITLE4=Heas
TTITLE5=Nua zu Gast
TTITLE6=Somma Sonnna
TTITLE7=Cafe Sch...
TTITLE8=Sis da Blues
TTITLE9=Brennd wia a Feia
TTITLE10=Da Herrgottsmo de G'schicht
TTITLE11=Da Herrgottsmo
TTITLE12=Hoamkemma Jodler
EXTD=
EXTT0=
EXTT1=
EXTT2=
EXTT3=
EXTT4=
EXTT5=
EXTT6=
EXTT7=
EXTT8=
EXTT9=
EXTT10=
EXTT11=
EXTT12=
PLAYORDER=
